# xmcd
#
# Track frame offsets:
# 150
# 13853
# 31027
# 54712
# 70119
# 88690
# 109044
# 121334
# 138871
# 156269
# 175326
# 196009
# 207564
# 225248
# 238469
# 256821
# 271139
# 291211
# 305374
# 326296
#
# Disc length: 4550 seconds
#
#
# Revision: 0
# Processed by: cddbd v1.5.1PL0 Copyright (c) Steve Scherf et al.
# Submitted via: FreeRIP 2.90 
#
DISCID=1211c414
DTITLE=Michael Buble - come fly with me
DYEAR=1900
DGENRE=Blues
TTITLE0=nice 'n easy
TTITLE1=can't help falling in love
TTITLE2=my funny valentine
TTITLE3=mack the knife
TTITLE4=fever
TTITLE5=you'll never know
TTITLE6=for once in my life
TTITLE7=moondance
TTITLE8=fever
TTITLE9=moondance
TTITLE10=kissing a fool
TTITLE11=for once in my life
TTITLE12=how can you med a broken heart
TTITLE13=summer wind
TTITLE14=you'll never find antoher love like mine
TTITLE15=crazy little thing called love
TTITLE16=put your head on my shoulder
TTITLE17=sway
TTITLE18=the way you look tonight
TTITLE19=come fly with me
EXTD=Check track names - duplicates on albumn?
EXTT0=
EXTT1=
EXTT2=
EXTT3=
EXTT4=
EXTT5=
EXTT6=
EXTT7=
EXTT8=
EXTT9=
EXTT10=
EXTT11=
EXTT12=
EXTT13=
EXTT14=
EXTT15=
EXTT16=
EXTT17=
EXTT18=
EXTT19=
PLAYORDER=
